<mxfile host="app.diagrams.net" agent="Mozilla/5.0 (Windows NT 10.0; Win64; x64) AppleWebKit/537.36 (KHTML, like Gecko) Chrome/130.0.0.0 Safari/537.36" version="24.7.17">
  <diagram name="Страница — 1" id="2QLiTcnf7xHdyl1m3iob">
    <mxGraphModel dx="2117" dy="565" grid="1" gridSize="10" guides="1" tooltips="1" connect="1" arrows="1" fold="1" page="1" pageScale="1" pageWidth="827" pageHeight="1169" math="0" shadow="0">
      <root>
        <mxCell id="0" />
        <mxCell id="1" parent="0" />
        <mxCell id="GfgG3rqBOOAg_DViAh61-2" value="Получение и обработка пользовательских данных" style="rounded=0;whiteSpace=wrap;html=1;" vertex="1" parent="1">
          <mxGeometry x="-100" y="140" width="160" height="60" as="geometry" />
        </mxCell>
        <mxCell id="GfgG3rqBOOAg_DViAh61-3" value="Сбор информации о состоянии дорожного покрытия" style="rounded=0;whiteSpace=wrap;html=1;" vertex="1" parent="1">
          <mxGeometry x="180" y="140" width="120" height="60" as="geometry" />
        </mxCell>
        <mxCell id="GfgG3rqBOOAg_DViAh61-4" value="Визуализация построенного маршрута на карте" style="rounded=0;whiteSpace=wrap;html=1;" vertex="1" parent="1">
          <mxGeometry x="570" y="140" width="120" height="60" as="geometry" />
        </mxCell>
        <mxCell id="GfgG3rqBOOAg_DViAh61-5" value="Построение маршрута с учетом полученных данных" style="rounded=0;whiteSpace=wrap;html=1;" vertex="1" parent="1">
          <mxGeometry x="390" y="140" width="120" height="60" as="geometry" />
        </mxCell>
        <mxCell id="GfgG3rqBOOAg_DViAh61-6" value="&lt;div&gt;&lt;br&gt;&lt;/div&gt;&lt;div&gt;Построить маршрут по городу согласно параметрам&lt;/div&gt;&lt;div&gt;дорожного покрытия&lt;/div&gt;&lt;div&gt;&lt;br&gt;&lt;/div&gt;" style="rounded=0;whiteSpace=wrap;html=1;" vertex="1" parent="1">
          <mxGeometry x="260" y="30" width="180" height="60" as="geometry" />
        </mxCell>
        <mxCell id="GfgG3rqBOOAg_DViAh61-7" value="" style="endArrow=classic;html=1;rounded=0;exitX=0.5;exitY=1;exitDx=0;exitDy=0;entryX=0.5;entryY=0;entryDx=0;entryDy=0;" edge="1" parent="1" source="GfgG3rqBOOAg_DViAh61-6" target="GfgG3rqBOOAg_DViAh61-2">
          <mxGeometry width="50" height="50" relative="1" as="geometry">
            <mxPoint x="390" y="320" as="sourcePoint" />
            <mxPoint x="440" y="270" as="targetPoint" />
            <Array as="points">
              <mxPoint x="350" y="120" />
              <mxPoint x="-20" y="120" />
            </Array>
          </mxGeometry>
        </mxCell>
        <mxCell id="GfgG3rqBOOAg_DViAh61-8" value="" style="endArrow=classic;html=1;rounded=0;exitX=0.5;exitY=1;exitDx=0;exitDy=0;entryX=0.5;entryY=0;entryDx=0;entryDy=0;" edge="1" parent="1" source="GfgG3rqBOOAg_DViAh61-6" target="GfgG3rqBOOAg_DViAh61-4">
          <mxGeometry width="50" height="50" relative="1" as="geometry">
            <mxPoint x="390" y="120" as="sourcePoint" />
            <mxPoint x="440" y="270" as="targetPoint" />
            <Array as="points">
              <mxPoint x="350" y="120" />
              <mxPoint x="630" y="120" />
            </Array>
          </mxGeometry>
        </mxCell>
        <mxCell id="GfgG3rqBOOAg_DViAh61-9" value="" style="endArrow=classic;html=1;rounded=0;exitX=0.5;exitY=1;exitDx=0;exitDy=0;entryX=0.5;entryY=0;entryDx=0;entryDy=0;" edge="1" parent="1" source="GfgG3rqBOOAg_DViAh61-6" target="GfgG3rqBOOAg_DViAh61-3">
          <mxGeometry width="50" height="50" relative="1" as="geometry">
            <mxPoint x="390" y="90" as="sourcePoint" />
            <mxPoint x="440" y="270" as="targetPoint" />
            <Array as="points">
              <mxPoint x="350" y="120" />
              <mxPoint x="320" y="120" />
              <mxPoint x="240" y="120" />
            </Array>
          </mxGeometry>
        </mxCell>
        <mxCell id="GfgG3rqBOOAg_DViAh61-10" value="" style="endArrow=classic;html=1;rounded=0;exitX=0.5;exitY=1;exitDx=0;exitDy=0;entryX=0.5;entryY=0;entryDx=0;entryDy=0;" edge="1" parent="1" source="GfgG3rqBOOAg_DViAh61-6" target="GfgG3rqBOOAg_DViAh61-5">
          <mxGeometry width="50" height="50" relative="1" as="geometry">
            <mxPoint x="390" y="320" as="sourcePoint" />
            <mxPoint x="440" y="270" as="targetPoint" />
            <Array as="points">
              <mxPoint x="350" y="120" />
              <mxPoint x="450" y="120" />
            </Array>
          </mxGeometry>
        </mxCell>
        <mxCell id="GfgG3rqBOOAg_DViAh61-11" value="Ввод начальной и конечной точек" style="rounded=0;whiteSpace=wrap;html=1;" vertex="1" parent="1">
          <mxGeometry x="-180" y="215" width="120" height="60" as="geometry" />
        </mxCell>
        <mxCell id="GfgG3rqBOOAg_DViAh61-12" value="Валидация введенных данных" style="rounded=0;whiteSpace=wrap;html=1;" vertex="1" parent="1">
          <mxGeometry x="-180" y="305" width="120" height="60" as="geometry" />
        </mxCell>
        <mxCell id="GfgG3rqBOOAg_DViAh61-13" value="Получение списка предпочтения пользователя" style="rounded=0;whiteSpace=wrap;html=1;" vertex="1" parent="1">
          <mxGeometry x="-180" y="405" width="120" height="60" as="geometry" />
        </mxCell>
        <mxCell id="GfgG3rqBOOAg_DViAh61-14" value="Загрузка данных о состоянии дорог" style="rounded=0;whiteSpace=wrap;html=1;" vertex="1" parent="1">
          <mxGeometry x="90" y="220" width="120" height="60" as="geometry" />
        </mxCell>
        <mxCell id="GfgG3rqBOOAg_DViAh61-15" value="Запрос к хранилищу и фильтрация согласно запросу" style="rounded=0;whiteSpace=wrap;html=1;" vertex="1" parent="1">
          <mxGeometry x="90" y="320" width="120" height="60" as="geometry" />
        </mxCell>
        <mxCell id="GfgG3rqBOOAg_DViAh61-16" value="Определение допустимых участков дорог" style="rounded=0;whiteSpace=wrap;html=1;" vertex="1" parent="1">
          <mxGeometry x="310" y="220" width="120" height="60" as="geometry" />
        </mxCell>
        <mxCell id="GfgG3rqBOOAg_DViAh61-17" value="Выбор подходящего алгоритма нахождения пути" style="rounded=0;whiteSpace=wrap;html=1;" vertex="1" parent="1">
          <mxGeometry x="310" y="310" width="120" height="60" as="geometry" />
        </mxCell>
        <mxCell id="GfgG3rqBOOAg_DViAh61-18" value="Динамическое построение маршрута и его проверка" style="rounded=0;whiteSpace=wrap;html=1;" vertex="1" parent="1">
          <mxGeometry x="310" y="405" width="120" height="60" as="geometry" />
        </mxCell>
        <mxCell id="GfgG3rqBOOAg_DViAh61-20" value="" style="endArrow=classic;html=1;rounded=0;exitX=0.5;exitY=1;exitDx=0;exitDy=0;entryX=1;entryY=0.5;entryDx=0;entryDy=0;" edge="1" parent="1" source="GfgG3rqBOOAg_DViAh61-2" target="GfgG3rqBOOAg_DViAh61-13">
          <mxGeometry width="50" height="50" relative="1" as="geometry">
            <mxPoint x="380" y="320" as="sourcePoint" />
            <mxPoint x="430" y="270" as="targetPoint" />
            <Array as="points">
              <mxPoint x="-20" y="435" />
            </Array>
          </mxGeometry>
        </mxCell>
        <mxCell id="GfgG3rqBOOAg_DViAh61-21" value="" style="endArrow=classic;html=1;rounded=0;entryX=1;entryY=0.5;entryDx=0;entryDy=0;" edge="1" parent="1" target="GfgG3rqBOOAg_DViAh61-11">
          <mxGeometry width="50" height="50" relative="1" as="geometry">
            <mxPoint x="-20" y="245" as="sourcePoint" />
            <mxPoint x="430" y="270" as="targetPoint" />
          </mxGeometry>
        </mxCell>
        <mxCell id="GfgG3rqBOOAg_DViAh61-22" value="" style="endArrow=classic;html=1;rounded=0;" edge="1" parent="1" target="GfgG3rqBOOAg_DViAh61-12">
          <mxGeometry width="50" height="50" relative="1" as="geometry">
            <mxPoint x="-20" y="340" as="sourcePoint" />
            <mxPoint x="430" y="270" as="targetPoint" />
          </mxGeometry>
        </mxCell>
        <mxCell id="GfgG3rqBOOAg_DViAh61-23" value="" style="endArrow=classic;html=1;rounded=0;exitX=0.5;exitY=1;exitDx=0;exitDy=0;entryX=1;entryY=0.5;entryDx=0;entryDy=0;" edge="1" parent="1" source="GfgG3rqBOOAg_DViAh61-3" target="GfgG3rqBOOAg_DViAh61-15">
          <mxGeometry width="50" height="50" relative="1" as="geometry">
            <mxPoint x="380" y="320" as="sourcePoint" />
            <mxPoint x="430" y="270" as="targetPoint" />
            <Array as="points">
              <mxPoint x="240" y="350" />
            </Array>
          </mxGeometry>
        </mxCell>
        <mxCell id="GfgG3rqBOOAg_DViAh61-24" value="" style="endArrow=classic;html=1;rounded=0;" edge="1" parent="1" target="GfgG3rqBOOAg_DViAh61-14">
          <mxGeometry width="50" height="50" relative="1" as="geometry">
            <mxPoint x="240" y="250" as="sourcePoint" />
            <mxPoint x="430" y="270" as="targetPoint" />
          </mxGeometry>
        </mxCell>
        <mxCell id="GfgG3rqBOOAg_DViAh61-25" value="" style="endArrow=classic;html=1;rounded=0;exitX=0.5;exitY=1;exitDx=0;exitDy=0;entryX=1;entryY=0.5;entryDx=0;entryDy=0;" edge="1" parent="1" source="GfgG3rqBOOAg_DViAh61-5" target="GfgG3rqBOOAg_DViAh61-18">
          <mxGeometry width="50" height="50" relative="1" as="geometry">
            <mxPoint x="380" y="320" as="sourcePoint" />
            <mxPoint x="430" y="270" as="targetPoint" />
            <Array as="points">
              <mxPoint x="450" y="435" />
            </Array>
          </mxGeometry>
        </mxCell>
        <mxCell id="GfgG3rqBOOAg_DViAh61-26" value="" style="endArrow=classic;html=1;rounded=0;" edge="1" parent="1" target="GfgG3rqBOOAg_DViAh61-16">
          <mxGeometry width="50" height="50" relative="1" as="geometry">
            <mxPoint x="450" y="250" as="sourcePoint" />
            <mxPoint x="430" y="270" as="targetPoint" />
          </mxGeometry>
        </mxCell>
        <mxCell id="GfgG3rqBOOAg_DViAh61-27" value="" style="endArrow=classic;html=1;rounded=0;entryX=1;entryY=0.5;entryDx=0;entryDy=0;" edge="1" parent="1" target="GfgG3rqBOOAg_DViAh61-17">
          <mxGeometry width="50" height="50" relative="1" as="geometry">
            <mxPoint x="450" y="340" as="sourcePoint" />
            <mxPoint x="430" y="270" as="targetPoint" />
          </mxGeometry>
        </mxCell>
      </root>
    </mxGraphModel>
  </diagram>
</mxfile>
